<svg xmlns="http://www.w3.org/2000/svg" viewBox="0 0 750 500"><g id="freepik--background-simple--inject-2"><path d="M593.3,62l-.9,1.45a38.5,38.5,0,0,0-.84,39.84,37.43,37.43,0,0,0,3.13,4.51,40.47,40.47,0,0,0,35.37,14.36c7.81-.89,15.71-4,23.27-2,9.84,2.59,15.25,12.73,19.55,21.88s9.73,19.28,19.59,21.83c6.17,1.59,12.83-.29,18.39-3.49,14.7-8.47,22.86-25.86,22.78-42.66s-7.49-32.87-17.88-46c-14.56-18.43-35.84-32.18-59.35-35S607.48,43,593.3,62Z" style="fill:#f5f5f5"></path><path d="M25.83,145.15l1,1.37a38.53,38.53,0,0,0,36.77,15.37A38,38,0,0,0,69,160.63,40.43,40.43,0,0,0,95.26,133c2-7.58,2-16.09,6.61-22.4,6-8.21,17.43-9.53,27.52-10.18s21.5-2,27.48-10.24c3.75-5.16,4.44-12,3.49-18.39C157.86,55,144.67,41,129,34.93s-33.32-5.06-49.37-.2c-22.48,6.8-43.07,21.57-54.3,42.41S13.33,125,25.83,145.15Z" style="fill:#f5f5f5"></path><circle cx="76.62" cy="366.85" r="34.31" style="fill:#f5f5f5"></circle></g><g id="freepik--Floor--inject-2"><path d="M719.31,462.09c0,.14-154.17.26-344.29.26s-344.33-.12-344.33-.26,154.13-.26,344.33-.26S719.31,461.94,719.31,462.09Z" style="fill:#263238"></path></g><g id="freepik--Device--inject-2"><path d="M575.8,458.08H174.46a24,24,0,0,1-24-24V158.61A17.52,17.52,0,0,1,168,141.09h415.3a16.56,16.56,0,0,1,16.56,16.56V434.06A24,24,0,0,1,575.8,458.08Z" style="fill:#e0e0e0"></path><path d="M575.8,458.08l1-.07L578,458c.49,0,1-.15,1.67-.23l1-.16,1.1-.29,1.2-.31,1.28-.47a24.43,24.43,0,0,0,2.79-1.25c.49-.25,1-.57,1.47-.87l.75-.46.74-.55a23.72,23.72,0,0,0,9.41-15.28c.07-.45.13-.9.2-1.36s.06-.93.09-1.4c.07-.94.08-1.9.07-2.88q0-3,0-6.1,0-6.3,0-13.4c0-37.9-.05-92.72-.08-160.46q0-25.41,0-53.17V160.14c0-1.22,0-2.45-.06-3.65a16.33,16.33,0,0,0-7-12.28,16,16,0,0,0-6.82-2.7c-.31,0-.61-.11-.92-.13l-.93,0c-.62,0-1.25,0-1.88,0H466.11l-291.41,0h-4.84c-.81,0-1.62,0-2.41,0l-1.19.06c-.4,0-.79.11-1.18.17a6.56,6.56,0,0,0-1.17.24c-.38.1-.77.19-1.15.3a19,19,0,0,0-2.2.88,16.63,16.63,0,0,0-4,2.6,17.65,17.65,0,0,0-3.11,3.57,18.56,18.56,0,0,0-2,4.27,17.87,17.87,0,0,0-.76,4.65c-.05,1.58,0,3.19,0,4.78q0,19.16,0,38v74.35c0,48.75,0,95.77,0,140.56q0,8.4,0,16.69c0,1.39.05,2.75.15,4.11l.31,2c.13.66.32,1.32.49,2a24,24,0,0,0,3.53,7.27,23.56,23.56,0,0,0,12.94,9c.65.15,1.28.37,1.94.47l2,.3c1.33.07,2.65.15,4,.13H245.7l110.81,0L517,458l43.63,0,11.34,0,3.87,0-3.87,0-11.34,0-43.63,0-160.45.08-110.81,0H176c-1.33,0-2.68-.06-4-.13l-2-.31c-.67-.1-1.32-.32-2-.47a24.09,24.09,0,0,1-13.18-9.21,24.58,24.58,0,0,1-3.61-7.42c-.16-.67-.36-1.34-.5-2l-.31-2.06c-.1-1.38-.17-2.78-.15-4.16V415.83c0-44.79,0-91.81,0-140.56V162.89c0-1.6,0-3.18,0-4.79a18.1,18.1,0,0,1,.78-4.79,18.79,18.79,0,0,1,2.08-4.39,17.76,17.76,0,0,1,3.19-3.67,17.14,17.14,0,0,1,4.07-2.67,20.33,20.33,0,0,1,2.27-.92l1.19-.31a8,8,0,0,1,1.2-.24c.4-.06.8-.13,1.21-.18l1.22-.06c.82-.05,1.62,0,2.43,0h4.84l291.41,0H582c.63,0,1.25,0,1.89,0l1,0c.31,0,.62.09.94.14a16.46,16.46,0,0,1,7,2.77A16.75,16.75,0,0,1,600,156.46c.09,1.25,0,2.46.06,3.68v39.17q0,27.74,0,53.17c0,67.74-.06,122.56-.08,160.46q0,7.1,0,13.4v6.1c0,1,0,1.94-.07,2.89,0,.47,0,.95-.1,1.41l-.21,1.36a23.72,23.72,0,0,1-3.7,9.34,24.29,24.29,0,0,1-5.79,6l-.74.55-.76.46c-.51.3-1,.62-1.48.87a26.26,26.26,0,0,1-2.8,1.24L583,457l-1.21.31-1.1.28-1,.16c-.64.08-1.19.2-1.67.22l-1.21.05Z" style="fill:#263238"></path><path d="M599.35,462.9H154.87a23.21,23.21,0,0,1-23.22-23.22v-3.62a.89.89,0,0,1,.89-.89H617.62a.89.89,0,0,1,.89.89v7.68A19.16,19.16,0,0,1,599.35,462.9Z" style="fill:#e0e0e0"></path><path d="M599.35,462.9l.65,0a15.27,15.27,0,0,0,1.94-.18,19.12,19.12,0,0,0,11.49-6.07,19,19,0,0,0,3.6-5.7,19.83,19.83,0,0,0,1.4-7.73c0-1.41,0-2.88,0-4.38v-2.3c0-.39,0-.78-.26-1s-.66-.21-1.06-.22l-108.25.08-357.14.07H132.58a.65.65,0,0,0-.29.06.62.62,0,0,0-.37.42,4.29,4.29,0,0,0,0,.75v1.62c0,1.08,0,2.14.09,3.21a22.36,22.36,0,0,0,1.37,6.2,23.48,23.48,0,0,0,1.29,2.9,24.71,24.71,0,0,0,1.71,2.67,23,23,0,0,0,9.83,7.7,24.21,24.21,0,0,0,6.07,1.56c2.08.2,4.19.16,6.3.16h132.3l160.56.06,108.25.08,29.42,0,7.66,0,2.61,0-2.61,0-7.66,0-29.42.05-108.25.08-160.56.05-94.83,0H158.55c-2.1,0-4.22,0-6.35-.16A24.77,24.77,0,0,1,146,461.4a23.74,23.74,0,0,1-10-7.86,25.84,25.84,0,0,1-1.75-2.73,24.56,24.56,0,0,1-1.31-3,22.49,22.49,0,0,1-1.4-6.34c-.07-1.08-.11-2.17-.09-3.24v-1.62a3.81,3.81,0,0,1,0-.87,1.13,1.13,0,0,1,.65-.76,1.21,1.21,0,0,1,.49-.09h19.13l357.14.07,108.25.08h.6a1,1,0,0,1,.59.26,1,1,0,0,1,.3.56c0,.23,0,.4,0,.6,0,.78,0,1.54,0,2.3v4.38a20,20,0,0,1-1.43,7.79,19.23,19.23,0,0,1-3.65,5.73,18.28,18.28,0,0,1-4.38,3.55,18.06,18.06,0,0,1-7.19,2.48,14.1,14.1,0,0,1-2,.15Z" style="fill:#263238"></path><rect x="168.86" y="160.44" width="411.28" height="259.66" rx="5" style="fill:#455a64"></rect><path d="M575.14,420.1s.29,0,.86-.09a5,5,0,0,0,2.3-1.07,5,5,0,0,0,1.79-3.67v-5.86c0-8.89,0-22-.05-38.85,0-33.74,0-82.55-.08-142.87q0-22.62,0-47.34,0-6.16,0-12.47v-1.57a11.26,11.26,0,0,0-.05-1.55,4.81,4.81,0,0,0-4-4.06,9.93,9.93,0,0,0-1.56-.06H546.58l-113.23,0-259.46,0a4.79,4.79,0,0,0-3.62,1.64,4.69,4.69,0,0,0-1,1.78,6.69,6.69,0,0,0-.19,2.07v59.55q0,33.61,0,66.2v63.9q0,15.65,0,31v26.53a9,9,0,0,0,.37,3.61,4.77,4.77,0,0,0,2.42,2.5,4.83,4.83,0,0,0,1.71.42c.6,0,1.24,0,1.85,0H281.23l98.66,0,142.86.08,38.84.05,10.1,0c2.28,0,3.45,0,3.45,0l-3.45,0-10.1,0-38.84.05-142.86.08-98.66,0H175.44c-.62,0-1.23,0-1.87,0a5.09,5.09,0,0,1-1.88-.46,5.29,5.29,0,0,1-2.66-2.73,5.21,5.21,0,0,1-.39-1.91V386.8q0-15.32,0-31v-63.9q0-32.55,0-66.2V166.18a7.28,7.28,0,0,1,.21-2.21,5.1,5.1,0,0,1,1.08-2,5.23,5.23,0,0,1,4-1.82l259.46,0,113.23,0h27.74a11.29,11.29,0,0,1,1.63.07,5.21,5.21,0,0,1,2.89,1.49,5.13,5.13,0,0,1,1.43,2.9,11,11,0,0,1,.06,1.61v14q0,24.71,0,47.34c0,60.32-.06,109.13-.08,142.87,0,16.87,0,30,0,38.85,0,2.22,0,4.18,0,5.86a5,5,0,0,1-1.84,3.71,5,5,0,0,1-2.33,1,3.89,3.89,0,0,1-.65.07Z" style="fill:#263238"></path><polygon points="330.83 434.63 336.87 444.88 421.88 444.88 427.49 434.63 330.83 434.63" style="fill:#263238"></polygon><path d="M378.45,151.65a3.37,3.37,0,1,1-3.37-3.37A3.37,3.37,0,0,1,378.45,151.65Z" style="fill:#263238"></path><path d="M557,183.56H541.21a1.12,1.12,0,0,1-1.13-1.13V174.6a1.12,1.12,0,0,1,1.12-1.12H557a.25.25,0,0,1,.2.09.27.27,0,0,1,.09.2v2.58h1.68a.29.29,0,0,1,.29.29v3.78a.29.29,0,0,1-.29.28h-1.68v2.59A.29.29,0,0,1,557,183.56Zm-.29-9.51H541.2a.54.54,0,0,0-.55.55v7.83a.56.56,0,0,0,.56.56h15.46v-2.58a.29.29,0,0,1,.29-.29h1.69v-3.2H557a.29.29,0,0,1-.29-.29Z" style="fill:#263238"></path><path d="M541.94,180.74V176.3a1,1,0,0,1,1-1h7.41a1,1,0,0,1,1,1v4.44a1,1,0,0,1-1,1H542.9A1,1,0,0,1,541.94,180.74Z" style="fill:#263238"></path></g><g id="freepik--Tab--inject-2"><path d="M292,72.93H508.12A9.05,9.05,0,0,1,517.17,82V380.65A8.38,8.38,0,0,1,508.8,389H292.08a7.58,7.58,0,0,1-7.58-7.58v-301A7.54,7.54,0,0,1,292,72.93Z" style="fill:#fff"></path><path d="M292,72.93H508.12A9.05,9.05,0,0,1,517.17,82v19.76a0,0,0,0,1,0,0H284.5a0,0,0,0,1,0,0V80.47A7.54,7.54,0,0,1,292,72.93Z" style="fill:#e0e0e0"></path><ellipse cx="300.22" cy="86.81" rx="3.82" ry="3.63" style="fill:#fff"></ellipse><ellipse cx="313.1" cy="86.81" rx="3.82" ry="3.63" style="fill:#fff"></ellipse><path d="M329.81,86.81A3.82,3.82,0,1,1,326,83.18,3.73,3.73,0,0,1,329.81,86.81Z" style="fill:#fff"></path><rect x="319.3" y="153.22" width="9.37" height="68.52" style="fill:#7ABAFF"></rect><rect x="337.39" y="176.49" width="9.37" height="45.25" style="fill:#7ABAFF"></rect><rect x="355.47" y="161.73" width="9.37" height="60.35" style="fill:#7ABAFF"></rect><rect x="373.55" y="155.86" width="9.37" height="65.87" style="fill:#7ABAFF"></rect><rect x="391.63" y="177.88" width="9.37" height="43.85" style="fill:#7ABAFF"></rect><rect x="409.72" y="186.48" width="9.37" height="35.25" style="fill:#7ABAFF"></rect><rect x="427.8" y="160.25" width="9.37" height="61.48" style="fill:#7ABAFF"></rect><rect x="445.88" y="171.33" width="9.37" height="50.4" style="fill:#7ABAFF"></rect><rect x="463.96" y="162.48" width="9.37" height="59.26" style="fill:#7ABAFF"></rect><rect x="482.05" y="181.36" width="9.37" height="40.37" style="fill:#7ABAFF"></rect><g style="opacity:0.30000000000000004"><rect x="337.39" y="176.49" width="9.37" height="45.25" style="fill:#fff"></rect></g><g style="opacity:0.30000000000000004"><rect x="373.55" y="155.86" width="9.37" height="65.87" style="fill:#fff"></rect></g><g style="opacity:0.30000000000000004"><rect x="409.72" y="186.48" width="9.37" height="35.25" style="fill:#fff"></rect></g><g style="opacity:0.30000000000000004"><rect x="445.88" y="171.33" width="9.37" height="50.4" style="fill:#fff"></rect></g><g style="opacity:0.30000000000000004"><rect x="482.05" y="181.36" width="9.37" height="40.37" style="fill:#fff"></rect></g><path d="M309.64,155.86s0,.11,0,.31,0,.52,0,.91c0,.82,0,2,0,3.56,0,3.13,0,7.68.06,13.47,0,11.62.05,28.17.09,48l-.22-.23,62.13,0,90.78.08,27.5.08,7.48.05,2,0c.44,0,.66,0,.66,0l-.66,0-2,0-7.48.05-27.5.09-90.78.07-62.13,0h-.23v-.23c0-19.8.07-36.35.09-48,0-5.79.05-10.34.07-13.47,0-1.55,0-2.74,0-3.56,0-.39,0-.69,0-.91A1.92,1.92,0,0,1,309.64,155.86Z" style="fill:#263238"></path><rect x="310.13" y="130.01" width="55.6" height="5.76" rx="2.56" style="fill:#e0e0e0"></rect><rect x="304.91" y="245.94" width="182.89" height="5.76" rx="2.56" style="fill:#e0e0e0"></rect><rect x="304.91" y="277.97" width="182.89" height="5.76" rx="2.56" style="fill:#e0e0e0"></rect><rect x="304.91" y="261.88" width="99.28" height="5.76" rx="2.56" style="fill:#e0e0e0"></rect><rect x="415.07" y="261.88" width="71.54" height="5.76" rx="2.56" style="fill:#e0e0e0"></rect><rect x="306.11" y="294.05" width="71.54" height="5.76" rx="2.56" style="fill:#e0e0e0"></rect><path d="M508.8,389a9.36,9.36,0,0,0,2.73-.49,8.42,8.42,0,0,0,5.31-5.78,9.49,9.49,0,0,0,.27-2.82v-3.19c0-2.22,0-4.66,0-7.3q0-7.92,0-18.22c0-27.42-.05-67.09-.08-116.1,0-24.51,0-51.36,0-80.18q0-21.62,0-44.67V84c0-1,0-2-.06-3a8.94,8.94,0,0,0-2.45-5.17,8.85,8.85,0,0,0-5.14-2.57,24.58,24.58,0,0,0-3-.09h-3l-210.86,0A7.28,7.28,0,0,0,285,78.83a14.86,14.86,0,0,0-.19,3.42q0,7,0,13.9v81.32c0,35.27,0,69.29,0,101.7s0,63.21,0,92c0,3.6,0,7.19,0,10.71a7.3,7.3,0,0,0,2,4.61,7.41,7.41,0,0,0,4.46,2.24c.83.08,1.71.05,2.58.06h17.86l38.47,0,116.1.08,31.57.05,8.21,0c1.85,0,2.8,0,2.8,0l-2.8,0-8.21,0-31.57,0-116.1.09H293.79c-.87,0-1.73,0-2.63-.06a7.78,7.78,0,0,1-6.84-7.24c-.05-3.56,0-7.12,0-10.73,0-28.82,0-59.62,0-92s0-66.43,0-101.7v-53.8q0-13.67,0-27.52V80.51a8.93,8.93,0,0,1,.21-1.79,7.83,7.83,0,0,1,8-6l210.86,0h3a26,26,0,0,1,3.05.09,9.28,9.28,0,0,1,8,8.17c.09,1,0,2,.06,3v3q0,11.85,0,23.36,0,23,0,44.67c0,28.82,0,55.67,0,80.18,0,49-.07,88.68-.09,116.1q0,10.29,0,18.22c0,2.64,0,5.08,0,7.3v3.19a9.75,9.75,0,0,1-.29,2.85,8.29,8.29,0,0,1-2.44,4,8.48,8.48,0,0,1-2.95,1.76,8.28,8.28,0,0,1-2.05.42Z" style="fill:#263238"></path><path d="M359.78,344.9A24.2,24.2,0,1,1,335.19,321,24.29,24.29,0,0,1,359.78,344.9Zm-35.77.58a11.57,11.57,0,1,0,11.39-11.81A11.61,11.61,0,0,0,324,345.48Z" style="fill:#e0e0e0"></path><path d="M359.78,344.9A24.29,24.29,0,0,1,336,369.6l-.2-12.69a11.62,11.62,0,0,0-.37-23.24L335.19,321A24.28,24.28,0,0,1,359.78,344.9Z" style="fill:#455a64"></path><path d="M338.14,371.55A27.65,27.65,0,0,1,309.83,344l14.77-.24c.12,7.5,5.83,12.22,13.29,12.1Z" style="fill:#7ABAFF"></path><path d="M376.64,347.63a24.2,24.2,0,1,1,24.59,23.92A24.3,24.3,0,0,1,376.64,347.63Zm35.77-.58A11.57,11.57,0,1,0,401,358.87,11.61,11.61,0,0,0,412.41,347.05Z" style="fill:#455a64"></path><path d="M376.64,347.63a24.3,24.3,0,0,1,23.81-24.7l.2,12.69a11.63,11.63,0,0,0,.37,23.25l.21,12.68A24.27,24.27,0,0,1,376.64,347.63Z" style="fill:#7ABAFF"></path><path d="M398.28,321a27.65,27.65,0,0,1,28.31,27.55l-14.77.23c-.12-7.49-5.83-12.22-13.29-12.09Z" style="fill:#e0e0e0"></path><path d="M468.73,321.29a24.2,24.2,0,1,1-23.92,24.59A24.29,24.29,0,0,1,468.73,321.29Zm.58,35.77a11.57,11.57,0,1,0-11.81-11.38A11.6,11.6,0,0,0,469.31,357.06Z" style="fill:#455a64"></path><path d="M468.73,321.29a24.29,24.29,0,0,1,24.7,23.81l-12.69.2a11.62,11.62,0,0,0-23.24.38l-12.69.2A24.3,24.3,0,0,1,468.73,321.29Z" style="fill:#7ABAFF"></path><path d="M495.38,342.93a27.65,27.65,0,0,1-27.54,28.31l-.24-14.77c7.5-.12,12.22-5.83,12.1-13.29Z" style="fill:#e0e0e0"></path></g><g id="freepik--piggy-bank--inject-2"><polygon points="478.28 413.04 500.49 462.09 511.21 462.09 512.75 458.34 514.65 462.09 521.68 462.09 520.87 433.45 520.52 416.54 478.28 413.04" style="fill:#7ABAFF"></polygon><g style="opacity:0.30000000000000004"><polygon points="478.28 413.04 500.49 462.09 511.21 462.09 512.75 458.34 514.65 462.09 521.68 462.09 520.87 433.45 520.52 416.54 478.28 413.04"></polygon></g><polygon points="575.49 418.3 597.16 462.09 607.88 462.09 609.41 458.66 611.32 462.09 618.35 462.09 617.53 435.88 617.19 420.39 575.49 418.3" style="fill:#7ABAFF"></polygon><g style="opacity:0.30000000000000004"><polygon points="575.49 418.3 597.16 462.09 607.88 462.09 609.41 458.66 611.32 462.09 618.35 462.09 617.53 435.88 617.19 420.39 575.49 418.3"></polygon></g><path d="M698.71,289.23l.2.07.58.25a9.68,9.68,0,0,1,2,1.35,11.23,11.23,0,0,1,3.9,7.8,10,10,0,0,1-1.51,5.94,11.54,11.54,0,0,1-5.34,4.57,9.5,9.5,0,0,1-7.71,0,5.64,5.64,0,0,1-2.86-3,4.46,4.46,0,0,1,.39-4.24,5.08,5.08,0,0,1,3.78-2,5.86,5.86,0,0,1,4,1.3,8.59,8.59,0,0,1,3.18,7,11,11,0,0,1-2.45,6.58,9.72,9.72,0,0,1-2.39,2.16,11.85,11.85,0,0,1-2.71,1.23,12.48,12.48,0,0,1-5.06.37,13.45,13.45,0,0,1-3.69-1,12.64,12.64,0,0,1-2.12-1.18c-.2-.15-.37-.27-.5-.38s-.17-.13-.16-.14a17.47,17.47,0,0,0,2.84,1.54,13.24,13.24,0,0,0,3.66.93,12.3,12.3,0,0,0,4.94-.42,11.68,11.68,0,0,0,2.62-1.22,9.87,9.87,0,0,0,2.3-2.1,10.63,10.63,0,0,0,2.32-6.37,8.14,8.14,0,0,0-3-6.64,5.47,5.47,0,0,0-3.67-1.22,4.64,4.64,0,0,0-3.46,1.84,4,4,0,0,0-.34,3.83,5.24,5.24,0,0,0,2.65,2.81,9.13,9.13,0,0,0,7.37,0,11.17,11.17,0,0,0,5.19-4.39,9.82,9.82,0,0,0,1.51-5.73,11,11,0,0,0-1.37-4.75,11.46,11.46,0,0,0-2.34-3A12.81,12.81,0,0,0,698.71,289.23Z" style="fill:#7ABAFF"></path><path d="M688.1,333.61c3.23,72.78-57.78,109.09-126.85,109.09s-125-47.29-125-105.62,56-105.62,125.05-105.62S685.52,275.33,688.1,333.61Z" style="fill:#7ABAFF"></path><g style="opacity:0.30000000000000004"><path d="M552.54,257.55s8.29-2.63,16.05,6.13,18.55,23.72,18.55,23.72c-1,4.86-3.81,8.65-9.31,10.91Z"></path></g><ellipse cx="479.02" cy="379.94" rx="42.82" ry="32.82" style="fill:#7ABAFF"></ellipse><path d="M519,292.21s25.09-38.93,36.59-34.71,22.28,40.81,22.28,40.81" style="fill:#7ABAFF"></path><path d="M490.58,283.29l-1.18-10.55s-15.71-6.56-29.78-9.78-16.84,0-16.84,0L465,294.15Z" style="fill:#7ABAFF"></path><g style="opacity:0.30000000000000004"><path d="M524.07,245.94l8.33,4.95s40.34-10.67,71.31,0l-11.37-9.67S554.78,233.14,524.07,245.94Z"></path></g><g style="opacity:0.30000000000000004"><ellipse cx="479.02" cy="379.94" rx="42.82" ry="32.82"></ellipse></g><ellipse cx="468.14" cy="379.94" rx="40.11" ry="32.82" style="fill:#7ABAFF"></ellipse><g style="opacity:0.30000000000000004"><path d="M452.73,395.33h0a4.29,4.29,0,0,1-4.29-4.29V368.83a4.29,4.29,0,0,1,4.29-4.29h0a4.29,4.29,0,0,1,4.29,4.29V391A4.29,4.29,0,0,1,452.73,395.33Z"></path></g><g style="opacity:0.30000000000000004"><rect x="471.49" y="364.54" width="8.58" height="30.79" rx="4.29"></rect></g><g style="opacity:0.30000000000000004"><path d="M488.14,284.32c3.61-2,5.55-5.08,4.19-10.1,0,0-18.64-8-32.71-11.26s-16.84,0-16.84,0L465,294.15Z"></path></g><path d="M489.4,285.18s-1-.72-2.8-1.89c-8.31-5.55-32.56-21.39-38.71-21.57-8.44-.24-8.46,7-8.44,12.67,0,4,3.28,38.7,3.28,38.7" style="fill:#7ABAFF"></path><path d="M577.83,298.31a1.13,1.13,0,0,1-.1-.24l-.24-.72-.92-2.75c-.81-2.39-2-5.84-3.67-10a129.55,129.55,0,0,0-6.57-14.39,51.41,51.41,0,0,0-5.09-7.79,19.17,19.17,0,0,0-3.49-3.42,6.64,6.64,0,0,0-4.57-1.55,11.63,11.63,0,0,0-4.7,1.63,30.16,30.16,0,0,0-4,2.79,69.44,69.44,0,0,0-6.78,6.39,156,156,0,0,0-10.16,12.14c-2.73,3.59-4.85,6.57-6.29,8.63l-1.66,2.39-.43.62a1,1,0,0,1-.16.2.86.86,0,0,1,.12-.23l.4-.64c.35-.56.89-1.38,1.59-2.43,1.41-2.1,3.48-5.11,6.19-8.72A149.9,149.9,0,0,1,537.37,268a67,67,0,0,1,6.81-6.45,30.06,30.06,0,0,1,4.1-2.83,12.15,12.15,0,0,1,4.86-1.69,5.52,5.52,0,0,1,2.61.37,10.75,10.75,0,0,1,2.25,1.26,19.69,19.69,0,0,1,3.56,3.5,50.66,50.66,0,0,1,5.11,7.87,125.27,125.27,0,0,1,6.52,14.47c1.61,4.22,2.77,7.68,3.54,10.09.38,1.2.66,2.14.85,2.78l.2.73A.94.94,0,0,1,577.83,298.31Z" style="fill:#263238"></path><path d="M592.34,241.22s.08,0,.21.14l.58.47,2.19,1.83,8,6.78.53.45-.67-.18a126.81,126.81,0,0,0-14.72-3.21,129,129,0,0,0-18.32-1.5,131.41,131.41,0,0,0-37.39,5l-.06,0,0,0-6.33-3.71-1.67-1-.43-.27-.14-.1.16.07.44.24,1.7.94,6.4,3.61-.11,0a127.54,127.54,0,0,1,16-3.62c3.19-.53,6.63-.91,10.23-1.22s7.38-.44,11.27-.36a125.17,125.17,0,0,1,18.38,1.53,123.63,123.63,0,0,1,14.75,3.3l-.15.27-7.9-6.89-2.14-1.89-.55-.5Z" style="fill:#263238"></path><path d="M492.06,353.59a1.12,1.12,0,0,1-.23-.14l-.67-.44-1.07-.72c-.44-.27-1-.54-1.53-.87a36.13,36.13,0,0,0-10.6-3.6,54.09,54.09,0,0,0-7.72-.72,55.49,55.49,0,0,0-8.87.66,45.2,45.2,0,0,0-18.84,7.32,40.37,40.37,0,0,0-4.15,3.37,34.87,34.87,0,0,0-3.48,3.85,33.18,33.18,0,0,0-4.81,8.52,29.66,29.66,0,0,0-1,16.37,28,28,0,0,0,2.16,6,25.67,25.67,0,0,0,2.63,4.05l1.14,1.35.92.9.56.57c.13.13.19.19.18.2l-.21-.17-.59-.53-1-.89-1.17-1.33a25.44,25.44,0,0,1-2.71-4,27.74,27.74,0,0,1-2.25-6.05,29.85,29.85,0,0,1,1-16.57,31.32,31.32,0,0,1,2.06-4.41,33.82,33.82,0,0,1,2.78-4.23,34.83,34.83,0,0,1,3.53-3.89,38.76,38.76,0,0,1,4.19-3.42,45.32,45.32,0,0,1,19-7.36,54.93,54.93,0,0,1,8.93-.62,51.56,51.56,0,0,1,7.77.78,34.81,34.81,0,0,1,10.63,3.75c.57.34,1.09.62,1.52.9l1,.76.65.48Z" style="fill:#263238"></path><path d="M456.78,367.43a7.57,7.57,0,0,1,.09,1.31c0,.92.09,2.12.15,3.57.13,3,.38,7.18.49,11.8,0,1.15,0,2.28,0,3.37a17.17,17.17,0,0,1-.23,3.16,6,6,0,0,1-2.92,4.4,3.56,3.56,0,0,1-3.53-.19,2.53,2.53,0,0,1-.7-.7,1,1,0,0,1-.16-.31,3.84,3.84,0,0,0,.95.87,3.44,3.44,0,0,0,3.31.06,5.74,5.74,0,0,0,2.66-4.21,17.92,17.92,0,0,0,.2-3.08c0-1.09,0-2.21,0-3.36-.11-4.61-.31-8.78-.36-11.8,0-1.51,0-2.74,0-3.58A7.13,7.13,0,0,1,456.78,367.43Z" style="fill:#263238"></path><path d="M479.52,367.43a8.06,8.06,0,0,1,.1,1.31c0,.92.09,2.12.15,3.57.12,3,.37,7.18.49,11.8,0,1.15,0,2.28,0,3.37a18.07,18.07,0,0,1-.24,3.16,6,6,0,0,1-2.91,4.4,3.57,3.57,0,0,1-3.54-.19,2.53,2.53,0,0,1-.7-.7.8.8,0,0,1-.15-.31,3.66,3.66,0,0,0,.94.87,3.44,3.44,0,0,0,3.31.06,5.74,5.74,0,0,0,2.66-4.21,16.94,16.94,0,0,0,.21-3.08c0-1.09,0-2.21,0-3.36-.12-4.61-.32-8.78-.37-11.8,0-1.51,0-2.74,0-3.58A7.94,7.94,0,0,1,479.52,367.43Z" style="fill:#263238"></path><path d="M507.77,387.08a3.64,3.64,0,0,1-.18.57c-.14.36-.29.92-.6,1.59a32.16,32.16,0,0,1-3,5.47,39.16,39.16,0,0,1-6.1,7,44.63,44.63,0,0,1-4.29,3.41,42.52,42.52,0,0,1-5.07,3A44.86,44.86,0,0,1,477.85,412a43.48,43.48,0,0,1-9.22.93c-2.64,0-4.77-.17-6.24-.27l-1.69-.13a2.77,2.77,0,0,1-.59-.08,3.38,3.38,0,0,1,.59,0l1.7.06c1.47.05,3.6.15,6.22.12a43.74,43.74,0,0,0,9.14-1,45.41,45.41,0,0,0,10.56-3.86,43.14,43.14,0,0,0,5-2.95,48.79,48.79,0,0,0,4.27-3.36,40.51,40.51,0,0,0,6.11-6.86,34.43,34.43,0,0,0,3.1-5.37c.34-.66.52-1.2.68-1.55A4.35,4.35,0,0,1,507.77,387.08Z" style="fill:#263238"></path><path d="M456.28,366.51a7.42,7.42,0,0,0-.56-.81,3.36,3.36,0,0,0-2.36-1.07,4.58,4.58,0,0,0-3.47,1.55,4.69,4.69,0,0,0-1.05,2,10.69,10.69,0,0,0-.25,2.51c0,3.54.05,6.75,0,9.07,0,1.09,0,2,0,2.75a4.81,4.81,0,0,1-.07,1,4.91,4.91,0,0,1-.1-1c0-.74-.05-1.66-.09-2.75-.06-2.32-.12-5.52-.15-9.07a10.84,10.84,0,0,1,.26-2.62,5.05,5.05,0,0,1,1.17-2.19,4.81,4.81,0,0,1,3.78-1.58,3.39,3.39,0,0,1,2.46,1.26,2.66,2.66,0,0,1,.38.66C456.28,366.42,456.3,366.51,456.28,366.51Z" style="fill:#fff"></path><path d="M471.35,368.41c.12,0,.22,4.34.22,9.68s-.1,9.69-.22,9.69-.21-4.34-.21-9.69S471.24,368.41,471.35,368.41Z" style="fill:#fff"></path><path d="M464.45,349.73a1.65,1.65,0,0,1-.51,0c-.33,0-.81,0-1.44,0a34.72,34.72,0,0,0-5.28.57,34.4,34.4,0,0,0-26,21.15,36.91,36.91,0,0,0-1.63,5.05c-.16.61-.24,1.09-.32,1.41a2,2,0,0,1-.14.49,2.36,2.36,0,0,1,.05-.5c.06-.33.11-.82.25-1.43a31.1,31.1,0,0,1,1.51-5.13,33.82,33.82,0,0,1,26.21-21.34,31.26,31.26,0,0,1,5.33-.44c.63,0,1.12,0,1.45.05A2.8,2.8,0,0,1,464.45,349.73Z" style="fill:#fff"></path><path d="M442.94,307.81a2.41,2.41,0,0,1-.15.47c-.14.34-.31.77-.51,1.3s-.51,1.25-.79,2.07-.65,1.72-1,2.76-.71,2.16-1,3.39-.67,2.55-1,3.94a86,86,0,0,0-1.51,9.19,84.74,84.74,0,0,0-.41,9.3c0,1.44.06,2.8.17,4.07s.19,2.45.31,3.53.26,2.05.37,2.9.24,1.59.35,2.18.17,1,.23,1.38a3.55,3.55,0,0,1,.05.49,2,2,0,0,1-.14-.47c-.08-.36-.18-.81-.31-1.37s-.28-1.32-.41-2.17-.33-1.82-.44-2.91-.28-2.26-.37-3.54-.15-2.64-.21-4.08a80.46,80.46,0,0,1,.38-9.35,81.42,81.42,0,0,1,1.56-9.24c.35-1.39.66-2.72,1.05-3.95s.72-2.36,1.08-3.39.72-1.94,1-2.75.6-1.49.85-2l.59-1.28A2.37,2.37,0,0,1,442.94,307.81Z" style="fill:#fff"></path><path d="M444.16,265s-.33.45-.82,1.31a12.43,12.43,0,0,0-1.38,3.95,38.22,38.22,0,0,0-.51,6.23c-.06,2.36-.08,5,0,7.69.13,5.45.57,10.38,1,13.93.21,1.72.39,3.14.52,4.2l.15,1.15a1.51,1.51,0,0,1,0,.4,1.32,1.32,0,0,1-.11-.39c-.06-.31-.13-.68-.22-1.13-.18-1-.42-2.42-.66-4.19a126.39,126.39,0,0,1-1.12-14c-.06-2.74,0-5.34.05-7.71a35.23,35.23,0,0,1,.6-6.28,12.09,12.09,0,0,1,1.53-4,7,7,0,0,1,.69-.94C444.06,265.11,444.15,265,444.16,265Z" style="fill:#fff"></path><path d="M524.26,239.24a2.61,2.61,0,0,1-.53.22l-1.52.54-5.65,1.94a186.35,186.35,0,0,0-18.28,7.19,85.22,85.22,0,0,0-16.75,10.15c-2,1.56-3.49,2.92-4.51,3.89-.52.48-.89.87-1.17,1.12a3.14,3.14,0,0,1-.42.38,2.71,2.71,0,0,1,.36-.44c.25-.27.61-.68,1.12-1.18a53,53,0,0,1,4.43-4,80.65,80.65,0,0,1,16.76-10.3,165.17,165.17,0,0,1,18.37-7.09c2.39-.79,4.34-1.4,5.68-1.81l1.56-.46A4.06,4.06,0,0,1,524.26,239.24Z" style="fill:#fff"></path><path d="M552.9,259.65a2.78,2.78,0,0,1-.37.29l-1.09.77c-1,.66-2.33,1.64-4,2.9s-3.59,2.8-5.66,4.6-4.27,3.88-6.48,6.16-4.17,4.57-5.91,6.7-3.2,4.12-4.39,5.83-2.12,3.11-2.74,4.09l-.73,1.12a1.8,1.8,0,0,1-.28.38s.06-.15.2-.42l.67-1.17c.57-1,1.47-2.44,2.63-4.17s2.62-3.74,4.33-5.91,3.71-4.45,5.91-6.75,4.44-4.35,6.53-6.16,4.05-3.33,5.74-4.55,3.08-2.17,4.07-2.78l1.14-.71C552.75,259.71,552.89,259.63,552.9,259.65Z" style="fill:#fff"></path><path d="M679.71,316.89a10.16,10.16,0,0,1,1,2.08,44,44,0,0,1,1.69,5.26,41.18,41.18,0,0,1,1,5.45,9.23,9.23,0,0,1,.13,2.29,16.45,16.45,0,0,1-.43-2.25c-.24-1.39-.6-3.3-1.13-5.38s-1.12-3.94-1.57-5.27A15.14,15.14,0,0,1,679.71,316.89Z" style="fill:#fff"></path><path d="M660,411.21l-.4.31-1.21.86-2,1.39-1.26.88-1.47,1A165,165,0,0,1,635.46,426c-2,1-4.11,1.94-6.31,2.94l-3.42,1.45-1.75.74-1.81.7-3.72,1.42-3.88,1.34c-1.31.47-2.66.88-4,1.3s-2.74.88-4.16,1.24a171.84,171.84,0,0,1-18,4,150.54,150.54,0,0,1-19.65,2.12A132.73,132.73,0,0,1,549,442.7l-2.37-.23c-.79-.08-1.57-.22-2.35-.32l-4.61-.66-4.48-.83-2.2-.41-2.16-.49a158.43,158.43,0,0,1-29.61-9.64,124.3,124.3,0,0,1-18.51-9.91c-2.12-1.3-3.63-2.5-4.71-3.24l-1.2-.88-.4-.31.43.27,1.22.85c1.09.72,2.62,1.9,4.75,3.17a130.7,130.7,0,0,0,18.54,9.78,160.38,160.38,0,0,0,29.57,9.52l2.16.49,2.2.41,4.47.82,4.6.65c.77.1,1.55.23,2.34.31l2.36.23a132,132,0,0,0,19.7.61,151.54,151.54,0,0,0,19.6-2.1,171.14,171.14,0,0,0,17.92-4c1.42-.36,2.79-.83,4.16-1.23s2.71-.82,4-1.29l3.87-1.32,3.72-1.41,1.81-.69,1.75-.74,3.41-1.43c2.2-1,4.32-1.95,6.32-2.91a172.28,172.28,0,0,0,18.28-10.29l1.48-.94,1.27-.86,2-1.36,1.24-.83Z" style="fill:#263238"></path><polygon points="624.58 420.02 641.12 462.31 652.42 462.31 654.89 458.63 657.79 462.31 661.78 462.31 663.27 395.29 624.58 420.02" style="fill:#7ABAFF"></polygon><path d="M520.7,426l14,36.34h12.85l2.63-4.21,2.53,4.21h3.19s1.4-41,0-42.16S520.7,426,520.7,426Z" style="fill:#7ABAFF"></path><path d="M684,344.76a.73.73,0,0,1,0,.24c0,.19,0,.42-.06.71-.06.65-.14,1.56-.25,2.71-.06.59-.13,1.25-.2,2s-.24,1.48-.37,2.31c-.29,1.66-.53,3.56-1.07,5.61-.24,1-.49,2.12-.76,3.24s-.66,2.26-1,3.46c-.66,2.4-1.63,4.88-2.6,7.51a97.93,97.93,0,0,1-19.31,30.67c-2,2-3.76,4-5.65,5.59-.93.83-1.79,1.67-2.68,2.4l-2.59,2.08c-1.62,1.37-3.24,2.41-4.6,3.39-.69.48-1.32.95-1.93,1.34l-1.68,1-2.33,1.4-.62.36-.21.11s.06-.06.19-.15l.59-.39,2.29-1.47,1.66-1.05c.6-.4,1.22-.88,1.9-1.36,1.35-1,2.95-2.05,4.55-3.43l2.56-2.1c.89-.73,1.74-1.58,2.66-2.41,1.87-1.64,3.67-3.59,5.6-5.6a99,99,0,0,0,19.23-30.54c1-2.62,2-5.08,2.63-7.48.35-1.18.74-2.32,1-3.43s.54-2.2.79-3.22c.55-2,.81-3.94,1.13-5.58.14-.83.3-1.6.4-2.31s.16-1.36.23-2c.14-1.15.26-2,.34-2.7,0-.29.07-.52.09-.7A1.17,1.17,0,0,1,684,344.76Z" style="fill:#fff"></path><g style="opacity:0.2"><path d="M666.09,309.09c-3.75-9.3-11.93-18.08-21.41-21.93A12.23,12.23,0,0,0,628,297.85a1.09,1.09,0,0,1,0,.18c-.29,6,2,11.73,4.91,17s6.31,10.18,8.54,15.71a40.12,40.12,0,0,1,.33,28.8c-2.2,5.85-5.86,12.09-2.55,17.93a11.19,11.19,0,0,0,10.92,5.32c8.41-.76,12.77-8.35,16.75-15.24a48.94,48.94,0,0,0,6-20.68A91,91,0,0,0,666.09,309.09Z" style="fill:#fff"></path></g><g style="opacity:0.2"><path d="M634.62,285.1c.22,0,.42,0,.64,0l0,0Z" style="fill:#fff"></path></g><path d="M466,329.27a5.92,5.92,0,1,1-5.92-5.92A5.91,5.91,0,0,1,466,329.27Z" style="fill:#263238"></path><path d="M526.8,330.8a5.92,5.92,0,1,1-5.92-5.91A5.92,5.92,0,0,1,526.8,330.8Z" style="fill:#263238"></path><path d="M664.15,280.86a2.89,2.89,0,0,1-.4-.44l-1.11-1.33c-.47-.58-1-1.29-1.76-2.09s-1.47-1.73-2.39-2.7-1.89-2.07-3-3.19-2.31-2.29-3.58-3.52c-2.59-2.41-5.53-5-8.76-7.46s-6.45-4.68-9.44-6.58c-1.51-.92-2.93-1.81-4.31-2.57s-2.66-1.48-3.84-2.1-2.27-1.15-3.23-1.63-1.78-.86-2.46-1.17l-1.56-.73a2.86,2.86,0,0,1-.53-.28,2.28,2.28,0,0,1,.56.2l1.6.66c.69.28,1.54.65,2.5,1.11s2.07.94,3.26,1.57,2.5,1.28,3.87,2.06,2.83,1.63,4.35,2.55c3,1.88,6.24,4.07,9.5,6.57s6.17,5.08,8.76,7.52c1.27,1.24,2.49,2.4,3.56,3.56s2.09,2.22,3,3.22,1.66,1.94,2.35,2.76,1.25,1.54,1.7,2.14l1,1.37A2.26,2.26,0,0,1,664.15,280.86Z" style="fill:#fff"></path><path d="M602,254.27a2.9,2.9,0,0,1-.64-.19l-1.81-.62c-.78-.28-1.74-.61-2.87-.94s-2.4-.78-3.84-1.13l-2.24-.59c-.79-.21-1.61-.36-2.46-.56-1.69-.4-3.53-.7-5.46-1a97,97,0,0,0-25.39-.73c-2,.23-3.8.42-5.51.73-.86.14-1.69.25-2.49.41l-2.28.46c-1.45.27-2.75.63-3.89.91s-2.12.54-2.92.78l-1.84.51a4.08,4.08,0,0,1-.65.16,3.11,3.11,0,0,1,.63-.24l1.82-.59c.78-.27,1.75-.57,2.9-.86s2.43-.67,3.89-1l2.28-.49c.79-.17,1.63-.29,2.49-.44,1.72-.33,3.58-.53,5.53-.78a103.81,103.81,0,0,1,12.77-.5,102.34,102.34,0,0,1,12.72,1.24c1.94.35,3.78.66,5.48,1.09.85.2,1.68.37,2.46.58l2.25.62c1.44.37,2.7.83,3.83,1.19s2.07.71,2.85,1l1.78.69C601.74,254.17,602,254.26,602,254.27Z" style="fill:#fff"></path><path d="M538.53,354.26a3.12,3.12,0,0,1,.9.5,7.91,7.91,0,0,1,2,2.05,8.38,8.38,0,0,1,1.33,4,8.23,8.23,0,0,1-5.45,8.11,8.22,8.22,0,0,1-4.19.29,7.76,7.76,0,0,1-2.64-1,2.69,2.69,0,0,1-.8-.65,10.55,10.55,0,0,0,3.5,1.31,8.11,8.11,0,0,0,4-.37,8,8,0,0,0,5.13-7.63,8.36,8.36,0,0,0-1.16-3.82A11.16,11.16,0,0,0,538.53,354.26Z" style="fill:#263238"></path></g></svg>