<svg xmlns="http://www.w3.org/2000/svg" viewBox="0 0 500 500"><g id="freepik--background-simple--inject-163"><path d="M262.46,100.74c-32.8-2.48-59.42-14.06-94.72-5.81-27.66,6.47-56.42,17.41-77.8,48.83C69.56,173.7,59,208.46,71.26,237.36c12.14,28.57,42.3,47.16,69.41,48.87,14.46.91,29.28-4.92,44.17-8.21,16.41-3.63,30.5-1,44.68,4.63,24.9,9.83,48,22.19,78.12,7.4,29.55-14.5,49.57-47.39,69.22-79,18-28.91,49.87-65.81,43-101.06-6.49-33.33-41.75-51.94-69.5-46.4C319.46,69.77,293.91,103.12,262.46,100.74Z" style="fill:#7ABAFF"></path><path d="M262.46,100.74c-32.8-2.48-59.42-14.06-94.72-5.81-27.66,6.47-56.42,17.41-77.8,48.83C69.56,173.7,59,208.46,71.26,237.36c12.14,28.57,42.3,47.16,69.41,48.87,14.46.91,29.28-4.92,44.17-8.21,16.41-3.63,30.5-1,44.68,4.63,24.9,9.83,48,22.19,78.12,7.4,29.55-14.5,49.57-47.39,69.22-79,18-28.91,49.87-65.81,43-101.06-6.49-33.33-41.75-51.94-69.5-46.4C319.46,69.77,293.91,103.12,262.46,100.74Z" style="fill:#fff;opacity:0.9"></path></g><g id="freepik--Shadow--inject-163"><ellipse id="freepik--path--inject-163" cx="250" cy="416.24" rx="193.89" ry="11.32" style="fill:#f5f5f5"></ellipse></g><g id="freepik--Cloud--inject-163"><path d="M129.37,213.94l-.63-.77a66.77,66.77,0,0,1,8.2-5.72l.51.87A65.79,65.79,0,0,0,129.37,213.94Z" style="fill:#7ABAFF"></path><path d="M108.83,242.52l-.93-.35a68.71,68.71,0,0,1,15.67-24.35l.71.71A67.82,67.82,0,0,0,108.83,242.52Z" style="fill:#7ABAFF"></path><path d="M302.57,286.59a53.28,53.28,0,0,0-73.21-48.95,64.38,64.38,0,0,0-120.7,14.25,55.4,55.4,0,0,0,3.61,110.69H288.59a39.28,39.28,0,0,0,14-76Z" style="fill:#7ABAFF"></path><path d="M262.91,268.69H121.81a4.35,4.35,0,0,1-4.33-4.34h0a4.34,4.34,0,0,1,4.33-4.33h141.1a4.34,4.34,0,0,1,4.33,4.33h0A4.35,4.35,0,0,1,262.91,268.69Z" style="fill:#263238"></path><path d="M241.63,327.29H143.09a14.56,14.56,0,1,1,0-29.12h98.54a14.56,14.56,0,1,1,0,29.12Zm-98.54-28.12a13.56,13.56,0,1,0,0,27.12h98.54a13.56,13.56,0,1,0,0-27.12Z" style="fill:#fff"></path><path d="M166.11,323.79h-23A11.1,11.1,0,0,1,132,312.73h0a11.1,11.1,0,0,1,11.06-11.07h23a11.1,11.1,0,0,1,11.06,11.07h0A11.1,11.1,0,0,1,166.11,323.79Z" style="fill:#fff"></path><polygon points="266.94 184.63 248.23 264.35 136.61 264.35 167.83 131.3 245.12 149.43 266.94 184.63" style="fill:#7ABAFF"></polygon><polygon points="266.94 184.63 248.23 264.35 136.61 264.35 167.83 131.3 245.12 149.43 266.94 184.63" style="fill:#fafafa;opacity:0.8"></polygon><path d="M252.38,199.45l-84.78-19.9a2.26,2.26,0,0,1-1.69-2.72h0a2.27,2.27,0,0,1,2.72-1.7L253.42,195a2.28,2.28,0,0,1,1.69,2.73h0A2.29,2.29,0,0,1,252.38,199.45Z" style="fill:#7ABAFF"></path><path d="M249.14,213.25l-84.78-19.9a2.27,2.27,0,0,1-1.69-2.73h0a2.28,2.28,0,0,1,2.73-1.69l84.78,19.9a2.27,2.27,0,0,1,1.69,2.72h0A2.28,2.28,0,0,1,249.14,213.25Z" style="fill:#7ABAFF"></path><path d="M245.9,227l-84.78-19.89a2.28,2.28,0,0,1-1.69-2.73h0a2.29,2.29,0,0,1,2.73-1.69l84.78,19.89a2.27,2.27,0,0,1,1.69,2.73h0A2.27,2.27,0,0,1,245.9,227Z" style="fill:#7ABAFF"></path><path d="M242.67,240.84,157.88,221a2.29,2.29,0,0,1-1.69-2.73h0a2.28,2.28,0,0,1,2.73-1.69l84.78,19.89a2.29,2.29,0,0,1,1.7,2.73h0A2.27,2.27,0,0,1,242.67,240.84Z" style="fill:#7ABAFF"></path><path d="M205.72,246.73l-51.07-12A2.27,2.27,0,0,1,153,232h0a2.26,2.26,0,0,1,2.72-1.69l51.08,12a2.27,2.27,0,0,1,1.69,2.73h0A2.27,2.27,0,0,1,205.72,246.73Z" style="fill:#7ABAFF"></path><polygon points="266.94 184.63 238.43 177.94 245.12 149.43 266.94 184.63" style="fill:#7ABAFF"></polygon></g></svg>